<svg width="258" height="80" viewBox="0 0 258 80" fill="none" xmlns="http://www.w3.org/2000/svg">
<g clip-path="url(#clip0_7041_3)">
<path d="M57.2204 25.3732L46.6873 35.9064L50.7656 39.9847L61.2987 29.4515L57.2204 25.3732Z" fill="#F13C6E"/>
<path d="M35.9094 46.7065L25.3762 57.2396L29.4545 61.3179L39.9877 50.7848L35.9094 46.7065Z" fill="#F13C6E"/>
<path d="M50.5173 18.706L39.9842 29.2391L44.0625 33.3174L54.5956 22.7843L50.5173 18.706Z" fill="#F13C6E"/>
<path d="M29.2355 40.0106L18.7023 50.5437L22.7806 54.622L33.3138 44.0889L29.2355 40.0106Z" fill="#F13C6E"/>
<path d="M22.7576 25.3729L18.6793 29.4512L29.2124 39.9843L33.2907 35.906L22.7576 25.3729Z" fill="#F13C6E"/>
<path d="M29.454 18.6989L25.3757 22.7772L35.9089 33.3104L39.9872 29.2321L29.454 18.6989Z" fill="#F13C6E"/>
<path d="M50.7592 39.9809L46.6809 44.0592L57.2141 54.5923L61.2924 50.514L50.7592 39.9809Z" fill="#F13C6E"/>
<path d="M44.092 46.6842L40.0137 50.7625L50.5468 61.2956L54.6251 57.2173L44.092 46.6842Z" fill="#F13C6E"/>
<path d="M54.6058 65.3942L50.5394 61.3278L40 71.8672L29.4606 61.3278L25.3942 65.3942L40 80L54.6058 65.3942Z" fill="#EFEFEF"/>
<path d="M18.6722 29.4606L14.6058 25.3942L0 40L14.6058 54.6058L18.6722 50.5394L8.13278 40L18.6722 29.4606Z" fill="#EFEFEF"/>
<path d="M65.3942 25.3942L61.3278 29.4606L71.8672 40L61.3278 50.5394L65.3942 54.6058L80 40L65.3942 25.3942Z" fill="#EFEFEF"/>
<path d="M50.5394 18.6722L54.6058 14.6058L40 0L25.3942 14.6058L29.4606 18.6722L40 8.13278L50.5394 18.6722Z" fill="#EFEFEF"/>
</g>
<path d="M112.305 42.7676H105.73L105.695 39.1465H111.215C112.188 39.1465 112.984 39.0234 113.605 38.7773C114.227 38.5195 114.689 38.1504 114.994 37.6699C115.311 37.1777 115.469 36.5801 115.469 35.877C115.469 35.0801 115.316 34.4355 115.012 33.9434C114.719 33.4512 114.256 33.0938 113.623 32.8711C113.002 32.6484 112.199 32.5371 111.215 32.5371H107.559V54H102.285V28.4062H111.215C112.703 28.4062 114.033 28.5469 115.205 28.8281C116.389 29.1094 117.391 29.5371 118.211 30.1113C119.031 30.6855 119.658 31.4121 120.092 32.291C120.525 33.1582 120.742 34.1895 120.742 35.3848C120.742 36.4395 120.502 37.4121 120.021 38.3027C119.553 39.1934 118.809 39.9199 117.789 40.4824C116.781 41.0449 115.463 41.3555 113.834 41.4141L112.305 42.7676ZM112.076 54H104.289L106.346 49.8867H112.076C113.002 49.8867 113.758 49.7402 114.344 49.4473C114.93 49.1426 115.363 48.7324 115.645 48.2168C115.926 47.7012 116.066 47.1094 116.066 46.4414C116.066 45.6914 115.938 45.041 115.68 44.4902C115.434 43.9395 115.035 43.5176 114.484 43.2246C113.934 42.9199 113.207 42.7676 112.305 42.7676H107.225L107.26 39.1465H113.588L114.801 40.5703C116.359 40.5469 117.613 40.8223 118.562 41.3965C119.523 41.959 120.221 42.6914 120.654 43.5938C121.1 44.4961 121.322 45.4629 121.322 46.4941C121.322 48.1348 120.965 49.5176 120.25 50.6426C119.535 51.7559 118.486 52.5938 117.104 53.1562C115.732 53.7188 114.057 54 112.076 54ZM146.051 49.8867V54H132.428V49.8867H146.051ZM134.151 28.4062V54H128.877V28.4062H134.151ZM144.276 38.8301V42.8379H132.428V38.8301H144.276ZM146.034 28.4062V32.5371H132.428V28.4062H146.034ZM163.134 32.7832L156.173 54H150.565L160.075 28.4062H163.643L163.134 32.7832ZM168.917 54L161.938 32.7832L161.376 28.4062H164.979L174.542 54H168.917ZM168.6 44.4727V48.6035H155.083V44.4727H168.6ZM194.331 28.4062H199.587V45.3164C199.587 47.2852 199.165 48.9434 198.321 50.291C197.489 51.6387 196.335 52.6523 194.859 53.332C193.394 54.0117 191.706 54.3516 189.796 54.3516C187.886 54.3516 186.187 54.0117 184.698 53.332C183.222 52.6523 182.062 51.6387 181.218 50.291C180.386 48.9434 179.97 47.2852 179.97 45.3164V28.4062H185.243V45.3164C185.243 46.4648 185.425 47.4023 185.788 48.1289C186.152 48.8555 186.673 49.3887 187.353 49.7285C188.044 50.0684 188.859 50.2383 189.796 50.2383C190.757 50.2383 191.571 50.0684 192.239 49.7285C192.919 49.3887 193.435 48.8555 193.786 48.1289C194.15 47.4023 194.331 46.4648 194.331 45.3164V28.4062ZM218.972 28.4062V54H213.716V28.4062H218.972ZM226.847 28.4062V32.5371H205.964V28.4062H226.847ZM237.25 28.4062L242.594 40.0781L247.938 28.4062H253.686L245.266 44.6836V54H239.922V44.6836L231.484 28.4062H237.25Z" fill="#F13C6E"/>
<defs>
<clipPath id="clip0_7041_3">
<rect width="80" height="80" fill="white"/>
</clipPath>
</defs>
</svg>
